<svg xmlns="http://www.w3.org/2000/svg" width="464" height="464" viewBox="0 0 464 464"><rect width="100%" height="100%" fill="#f1d2cd"/><path fill="#f1d2cd" d="M104.335 241.7h16.47v6.33h-24.14v-41.21h7.67zm21.06-22.91h7.07v29.24h-7.07zm8.04-8.52q0 .91-.37 1.71t-.99 1.39q-.61.6-1.43.96-.83.36-1.77.36-.91 0-1.73-.36-.81-.36-1.41-.96-.6-.59-.95-1.39-.36-.8-.36-1.71 0-.94.36-1.77.35-.83.95-1.42.6-.6 1.41-.96.82-.36 1.73-.36.94 0 1.77.36.82.36 1.43.96.62.59.99 1.42t.37 1.77m16.9 22.43q1.31 0 2.28-.36t1.61-.98q.64-.63.97-1.51.33-.89.33-1.94 0-2.17-1.3-3.44-1.3-1.26-3.89-1.26t-3.89 1.26q-1.3 1.27-1.3 3.44 0 1.02.33 1.91.33.88.97 1.52t1.62 1q.99.36 2.27.36m7.95 16.64q0-.85-.51-1.4-.52-.54-1.4-.84t-2.07-.44q-1.18-.14-2.5-.21-1.33-.07-2.74-.13t-2.75-.23q-1.17.66-1.89 1.54-.73.88-.73 2.05 0 .77.38 1.44.39.67 1.23 1.16.84.48 2.18.75t3.28.27q1.96 0 3.39-.3 1.42-.3 2.35-.82.93-.53 1.35-1.26.43-.72.43-1.58m-1.4-29.55h8.41v2.62q0 1.25-1.51 1.54l-2.62.48q.6 1.51.6 3.31 0 2.16-.87 3.92-.87 1.75-2.41 2.97-1.54 1.23-3.63 1.9-2.1.67-4.52.67-.86 0-1.65-.09-.8-.08-1.57-.22-1.37.82-1.37 1.85 0 .88.81 1.3.81.41 2.15.58t3.05.21q1.71.05 3.51.19 1.79.14 3.5.5 1.71.35 3.05 1.12t2.16 2.1q.81 1.32.81 3.4 0 1.94-.96 3.77-.95 1.82-2.76 3.25-1.81 1.42-4.45 2.29-2.63.87-6 .87-3.3 0-5.75-.64t-4.08-1.71q-1.62-1.07-2.42-2.47-.8-1.39-.8-2.91 0-2.05 1.24-3.43t3.41-2.21q-1.17-.6-1.86-1.59-.68-1-.68-2.63 0-.65.24-1.35t.71-1.38q.47-.69 1.19-1.3.71-.61 1.68-1.1-2.22-1.19-3.49-3.19-1.27-1.99-1.27-4.67 0-2.17.87-3.92t2.42-2.99 3.68-1.9q2.12-.65 4.63-.65 1.88 0 3.53.38 1.66.39 3.02 1.13m19.9-14.11v16.24q1.71-1.59 3.76-2.59t4.82-1q2.39 0 4.24.82 1.85.81 3.09 2.28 1.24 1.46 1.89 3.5.64 2.04.64 4.49v18.61h-7.04v-18.61q0-2.68-1.23-4.15-1.22-1.47-3.73-1.47-1.83 0-3.42.83-1.6.83-3.02 2.25v21.15h-7.04v-42.35zm34.85 42.81q-3.82 0-5.85-2.16-2.04-2.15-2.04-5.94v-16.33h-2.99q-.57 0-.97-.37t-.4-1.11v-2.79l4.7-.77 1.48-7.98q.14-.57.54-.89.4-.31 1.03-.31h3.65v9.21h7.81v5.01h-7.81v15.85q0 1.37.67 2.13.67.77 1.84.77.65 0 1.09-.15.44-.16.77-.33t.59-.33q.25-.15.51-.15.31 0 .51.15.2.16.43.47l2.11 3.42q-1.54 1.29-3.54 1.94-1.99.66-4.13.66m53.47-41.67h7.69v41.21h-7.69v-18.01h-19.35v18.01h-7.7v-41.21h7.7v17.73h19.35zm31.21 33.66v-4.93q-3.05.14-5.13.52-2.08.39-3.34.99-1.25.6-1.79 1.39-.55.8-.55 1.74 0 1.85 1.1 2.65t2.87.8q2.16 0 3.74-.78 1.59-.79 3.1-2.38m-14.88-15.36-1.26-2.26q5.05-4.61 12.15-4.61 2.56 0 4.58.84 2.03.84 3.42 2.34 1.4 1.49 2.13 3.57.72 2.08.72 4.56v18.47h-3.19q-.99 0-1.54-.3-.54-.3-.85-1.21l-.63-2.11q-1.11 1-2.16 1.75-1.06.76-2.2 1.27t-2.44.79q-1.29.27-2.86.27-1.85 0-3.42-.5t-2.71-1.5-1.76-2.48q-.63-1.48-.63-3.45 0-1.11.37-2.21.37-1.09 1.21-2.09t2.18-1.88q1.34-.89 3.29-1.54 1.95-.66 4.55-1.07 2.59-.41 5.93-.5v-1.71q0-2.93-1.26-4.34-1.25-1.42-3.62-1.42-1.71 0-2.83.4-1.13.4-1.98.9-.86.5-1.56.9t-1.55.4q-.74 0-1.25-.39-.52-.38-.83-.89m34.46-5.05.48 2.31q.88-.88 1.87-1.64.98-.75 2.08-1.28 1.09-.53 2.35-.83 1.25-.3 2.73-.3 2.4 0 4.25.82 1.85.81 3.09 2.28 1.24 1.46 1.88 3.5.65 2.04.65 4.49v18.61h-7.04v-18.61q0-2.68-1.23-4.15-1.22-1.47-3.73-1.47-1.83 0-3.42.83-1.6.83-3.02 2.25v21.15h-7.04v-29.24h4.3q1.37 0 1.8 1.28m44.4 19.3v-13.11q-1.2-1.46-2.61-2.06-1.41-.59-3.03-.59-1.6 0-2.88.59-1.29.6-2.2 1.81-.91 1.22-1.39 3.08-.49 1.87-.49 4.4 0 2.57.41 4.35.42 1.78 1.19 2.91.77 1.12 1.88 1.62t2.48.5q2.19 0 3.73-.91t2.91-2.59m0-33.69h7.04v42.35h-4.31q-1.39 0-1.76-1.28l-.6-2.82q-1.77 2.02-4.06 3.27-2.3 1.26-5.35 1.26-2.39 0-4.38-1-2-1-3.44-2.89-1.44-1.9-2.22-4.69-.79-2.79-.79-6.39 0-3.24.89-6.04.88-2.79 2.53-4.84 1.66-2.05 3.97-3.21 2.3-1.15 5.18-1.15 2.45 0 4.19.77t3.11 2.08z"/></svg>